<svg xmlns="http://www.w3.org/2000/svg" xmlns:xlink="http://www.w3.org/1999/xlink" width="1249" height="908" viewBox="-50 -857 1249 908"><title>Sheet_1</title><style type="text/css">
path, polyline, polygon {stroke-linejoin:round;}
path, polyline, polygon, line {stroke-linecap:round;}
</style>
<rect x="-50" y="-857" width="1249" height="908" fill="#FFFFFF" stroke="none"/><g><g display="">                 <g display="none"><text font-family="Arial" font-size="7pt" fill="#000080" text-anchor="start" x="571.3916625976562" y="-809">A</text></g><path d="M 206 -796 L 206 -806 M 206 -10 L 206 0 M 402 -796 L 402 -806 M 402 -10 L 402 0 M 598 -796 L 598 -806 M 598 -10 L 598 0 M 794 -796 L 794 -806 M 794 -10 L 794 0 M 990 -796 L 990 -806 M 990 -10 L 990 0 M 10 -600 L 0 -600 M 1139 -600 L 1149 -600 M 10 -404 L 0 -404 M 1139 -404 L 1149 -404 M 10 -208 L 0 -208 M 1139 -208 L 1149 -208 M 10 -12 L 0 -12 M 1139 -12 L 1149 -12" stroke="#880000" stroke-width="1" fill="none"/><g display="none"><text font-family="Arial" font-size="7pt" fill="#000080" text-anchor="start" x="571.3916666507721" y="-818">A</text></g><g><text type="comment" fill="#880000" font-family="Verdana" font-size="7pt" text-anchor="start" x="1.5" y="-698">A</text></g><g><text type="comment" fill="#880000" font-family="Verdana" font-size="7pt" text-anchor="start" x="1140.5" y="-698">A</text></g><g><text type="comment" fill="#880000" font-family="Verdana" font-size="7pt" text-anchor="start" x="1.5" y="-502">B</text></g><g><text type="comment" fill="#880000" font-family="Verdana" font-size="7pt" text-anchor="start" x="1140.5" y="-502">B</text></g><g><text type="comment" fill="#880000" font-family="Verdana" font-size="7pt" text-anchor="start" x="1.5" y="-306">C</text></g><g><text type="comment" fill="#880000" font-family="Verdana" font-size="7pt" text-anchor="start" x="1140.5" y="-306">C</text></g><g><text type="comment" fill="#880000" font-family="Verdana" font-size="7pt" text-anchor="start" x="1.5" y="-110">D</text></g><g><text type="comment" fill="#880000" font-family="Verdana" font-size="7pt" text-anchor="start" x="1140.5" y="-110">D</text></g><g><text type="comment" fill="#880000" font-family="Verdana" font-size="7pt" text-anchor="start" x="108" y="-797.5">1</text></g><g><text type="comment" fill="#880000" font-family="Verdana" font-size="7pt" text-anchor="start" x="108" y="-1.5">1</text></g><g><text type="comment" fill="#880000" font-family="Verdana" font-size="7pt" text-anchor="start" x="304" y="-797.5">2</text></g><g><text type="comment" fill="#880000" font-family="Verdana" font-size="7pt" text-anchor="start" x="304" y="-1.5">2</text></g><g><text type="comment" fill="#880000" font-family="Verdana" font-size="7pt" text-anchor="start" x="500" y="-797.5">3</text></g><g><text type="comment" fill="#880000" font-family="Verdana" font-size="7pt" text-anchor="start" x="500" y="-1.5">3</text></g><g><text type="comment" fill="#880000" font-family="Verdana" font-size="7pt" text-anchor="start" x="696" y="-797.5">4</text></g><g><text type="comment" fill="#880000" font-family="Verdana" font-size="7pt" text-anchor="start" x="696" y="-1.5">4</text></g><g><text type="comment" fill="#880000" font-family="Verdana" font-size="7pt" text-anchor="start" x="892" y="-797.5">5</text></g><g><text type="comment" fill="#880000" font-family="Verdana" font-size="7pt" text-anchor="start" x="892" y="-1.5">5</text></g><rect locked="0" x="10" y="-796" width="1129" height="786" stroke="#880000" stroke-width="1" fill="none"/> <rect locked="0" x="0" y="-806" width="1149" height="806" stroke="#880000" stroke-width="1" fill="none"/> <rect locked="0" x="694.99995" y="-89.99997499999995" width="444" height="80" stroke="#880000" stroke-width="1" fill="none"/> <polyline points="695.1 -50.75 1138.63 -50.75" stroke="#880000" locked="0" stroke-width="1" fill="none" stroke-linecap="round"/> <polyline points="799.63 -30.75 1138.63 -30.75" stroke="#880000" locked="0" stroke-width="1" fill="none" stroke-linecap="round"/> <polyline points="1059.61 -89.93 1059.63 -50.75" stroke="#880000" locked="0" stroke-width="1" fill="none" stroke-linecap="round"/> <polyline points="1059.63 -50.75 1059.63 -30.75" stroke="#880000" locked="0" stroke-width="1" fill="none" stroke-linecap="round"/> <g locked="0"><text x="699.99995" y="-76.99997499999995" fill="#880000" font-family="Verdana" font-size="8pt" font-weight="" font-style="" dominant-baseline="" text-anchor="start" type="comment">TITLE:</text></g> <g locked="0"><text x="757.62495" y="-64.40622499999995" fill="#0000FF" font-family="Verdana" font-size="10pt" font-weight="" font-style="" dominant-baseline="" text-anchor="start" type="comment">Sheet_1</text></g> <g locked="0"><text x="1064.62495" y="-63.74997499999995" fill="#880000" font-family="Verdana" font-size="8pt" font-weight="" font-style="" dominant-baseline="" text-anchor="start" type="comment">REV:</text></g> <g locked="0"><text x="1102.62495" y="-63.74997499999995" fill="#0000FF" font-family="Verdana" font-size="9pt" font-weight="" font-style="" dominant-baseline="" text-anchor="start" type="comment">1.0</text></g> <g locked="0"><text x="804.62495" y="-14.99997499999995" fill="#880000" font-family="Verdana" font-size="8pt" font-weight="" font-style="" dominant-baseline="" text-anchor="start" type="comment">Date:</text></g> <g locked="0"><text x="851.62495" y="-14.51559999999995" fill="#0000FF" font-family="Verdana" font-size="9pt" font-weight="" font-style="" dominant-baseline="" text-anchor="start" type="comment">2026-01-08</text></g> <g locked="0"><text x="1063.62495" y="-34.99997499999995" fill="#880000" font-family="Verdana" font-size="8pt" font-weight="" font-style="" dominant-baseline="" text-anchor="start" type="comment">Sheet:</text></g> <g locked="0"><text x="1108.62495" y="-34.51559999999995" fill="#0000FF" font-family="Verdana" font-size="9pt" font-weight="" font-style="" dominant-baseline="" text-anchor="start" type="comment">1/1</text></g> <g locked="0"><text x="943.62495" y="-14.74997499999995" fill="#880000" font-family="Verdana" font-size="8pt" font-weight="" font-style="" dominant-baseline="" text-anchor="start" type="comment">Drawn By:</text></g>  <g locked="0"><text x="804.62495" y="-36.74997499999995" fill="#880000" font-family="Verdana" font-size="8pt" font-weight="" font-style="" dominant-baseline="" text-anchor="start" type="comment">Company:</text></g><g locked="0"><text x="871.24995" y="-36.63622499999997" fill="#0000FF" font-family="Verdana" font-size="9pt" font-weight="" font-style="" dominant-baseline="" text-anchor="start" type="comment" value="Lawn Robot">Lawn Robot</text></g> <polyline points="799.63 -50.75 799.63 -10.75" stroke="#880000" locked="0" stroke-width="1" fill="none" stroke-linecap="round"/></g><g puuid="5f7b1beedb204193adb030e9de37332d" uuid="5fb819785e2a4eb580707d80c91037d2" convert_to_pcb="" datastrid="a31546efdda148dfa4943cc4073fb40f" pdatastrid="219a5d2c53a049b6b18763f3e954413a" utime="1761272742" add_into_bom=""><g style=""><text x="549.0322570800781" y="-573.6774110794067" font-family="Arial" font-size="7pt" fill="#000080" text-anchor="start">ESP32-C6-DEVKITC-1-N8</text></g><g style=""><text x="549.0322580337524" y="-582.8279447555542" font-family="Arial" font-size="7pt" fill="#000080" text-anchor="start">U1</text></g><rect locked="0" x="500" y="-570" rx="2" ry="2" width="110" height="170" stroke="#880000" stroke-width="1" fill="none"/><ellipse cx="505" cy="-565" rx="1.5" ry="1.5" locked="0" stroke="#880000" stroke-width="1" fill="#880000"/><g locked="0"><text x="503.70000000000005" y="-556" font-family="Verdana" font-size="7pt" fill="#0000FF" text-anchor="start">3V3</text><text x="499.5" y="-561" font-family="Verdana" font-size="7pt" fill="#0000FF" text-anchor="end">1</text><path d="M 490 -560 h 10" fill="none" stroke="#880000" stroke-width="1"/><circle cx="497" cy="-560" r="3" stroke="#880000" fill="none" stroke-width="1" display="none"/><path d="M 500 -557 L 503 -560 L 500 -563" fill="none" stroke="#880000" stroke-width="1" display="none"/></g><g locked="0"><text x="503.70000000000005" y="-546" font-family="Verdana" font-size="7pt" fill="#0000FF" text-anchor="start">RST</text><text x="499.5" y="-551" font-family="Verdana" font-size="7pt" fill="#0000FF" text-anchor="end">2</text><path d="M 490 -550 h 10" fill="none" stroke="#880000" stroke-width="1"/><circle cx="497" cy="-550" r="3" stroke="#880000" fill="none" stroke-width="1" display="none"/><path d="M 500 -547 L 503 -550 L 500 -553" fill="none" stroke="#880000" stroke-width="1" display="none"/></g><g locked="0"><text x="503.70000000000005" y="-536" font-family="Verdana" font-size="7pt" fill="#0000FF" text-anchor="start">GPIO4</text><text x="499.5" y="-541" font-family="Verdana" font-size="7pt" fill="#0000FF" text-anchor="end">3</text><path d="M 490 -540 h 10" fill="none" stroke="#880000" stroke-width="1"/><circle cx="497" cy="-540" r="3" stroke="#880000" fill="none" stroke-width="1" display="none"/><path d="M 500 -537 L 503 -540 L 500 -543" fill="none" stroke="#880000" stroke-width="1" display="none"/></g><g locked="0"><text x="503.70000000000005" y="-526" font-family="Verdana" font-size="7pt" fill="#0000FF" text-anchor="start">GPIO5</text><text x="499.5" y="-531" font-family="Verdana" font-size="7pt" fill="#0000FF" text-anchor="end">4</text><path d="M 490 -530 h 10" fill="none" stroke="#880000" stroke-width="1"/><circle cx="497" cy="-530" r="3" stroke="#880000" fill="none" stroke-width="1" display="none"/><path d="M 500 -527 L 503 -530 L 500 -533" fill="none" stroke="#880000" stroke-width="1" display="none"/></g><g locked="0"><text x="503.70000000000005" y="-516" font-family="Verdana" font-size="7pt" fill="#0000FF" text-anchor="start">GPIO6</text><text x="499.5" y="-521" font-family="Verdana" font-size="7pt" fill="#0000FF" text-anchor="end">5</text><path d="M 490 -520 h 10" fill="none" stroke="#880000" stroke-width="1"/><circle cx="497" cy="-520" r="3" stroke="#880000" fill="none" stroke-width="1" display="none"/><path d="M 500 -517 L 503 -520 L 500 -523" fill="none" stroke="#880000" stroke-width="1" display="none"/></g><g locked="0"><text x="503.70000000000005" y="-506" font-family="Verdana" font-size="7pt" fill="#0000FF" text-anchor="start">GPIO7</text><text x="499.5" y="-511" font-family="Verdana" font-size="7pt" fill="#0000FF" text-anchor="end">6</text><path d="M 490 -510 h 10" fill="none" stroke="#880000" stroke-width="1"/><circle cx="497" cy="-510" r="3" stroke="#880000" fill="none" stroke-width="1" display="none"/><path d="M 500 -507 L 503 -510 L 500 -513" fill="none" stroke="#880000" stroke-width="1" display="none"/></g><g locked="0"><text x="503.70000000000005" y="-496" font-family="Verdana" font-size="7pt" fill="#0000FF" text-anchor="start">GPIO0</text><text x="499.5" y="-501" font-family="Verdana" font-size="7pt" fill="#0000FF" text-anchor="end">7</text><path d="M 490 -500 h 10" fill="none" stroke="#880000" stroke-width="1"/><circle cx="497" cy="-500" r="3" stroke="#880000" fill="none" stroke-width="1" display="none"/><path d="M 500 -497 L 503 -500 L 500 -503" fill="none" stroke="#880000" stroke-width="1" display="none"/></g><g locked="0"><text x="503.70000000000005" y="-486" font-family="Verdana" font-size="7pt" fill="#0000FF" text-anchor="start">GPIO1</text><text x="499.5" y="-491" font-family="Verdana" font-size="7pt" fill="#0000FF" text-anchor="end">8</text><path d="M 490 -490 h 10" fill="none" stroke="#880000" stroke-width="1"/><circle cx="497" cy="-490" r="3" stroke="#880000" fill="none" stroke-width="1" display="none"/><path d="M 500 -487 L 503 -490 L 500 -493" fill="none" stroke="#880000" stroke-width="1" display="none"/></g><g locked="0"><text x="503.70000000000005" y="-476" font-family="Verdana" font-size="7pt" fill="#0000FF" text-anchor="start">GPIO8</text><text x="499.5" y="-481" font-family="Verdana" font-size="7pt" fill="#0000FF" text-anchor="end">9</text><path d="M 490 -480 h 10" fill="none" stroke="#880000" stroke-width="1"/><circle cx="497" cy="-480" r="3" stroke="#880000" fill="none" stroke-width="1" display="none"/><path d="M 500 -477 L 503 -480 L 500 -483" fill="none" stroke="#880000" stroke-width="1" display="none"/></g><g locked="0"><text x="503.70000000000005" y="-466" font-family="Verdana" font-size="7pt" fill="#0000FF" text-anchor="start">GPIO10</text><text x="499.5" y="-471" font-family="Verdana" font-size="7pt" fill="#0000FF" text-anchor="end">10</text><path d="M 490 -470 h 10" fill="none" stroke="#880000" stroke-width="1"/><circle cx="497" cy="-470" r="3" stroke="#880000" fill="none" stroke-width="1" display="none"/><path d="M 500 -467 L 503 -470 L 500 -473" fill="none" stroke="#880000" stroke-width="1" display="none"/></g><g locked="0"><text x="503.70000000000005" y="-456" font-family="Verdana" font-size="7pt" fill="#0000FF" text-anchor="start">GPIO11</text><text x="499.5" y="-461" font-family="Verdana" font-size="7pt" fill="#0000FF" text-anchor="end">11</text><path d="M 490 -460 h 10" fill="none" stroke="#880000" stroke-width="1"/><circle cx="497" cy="-460" r="3" stroke="#880000" fill="none" stroke-width="1" display="none"/><path d="M 500 -457 L 503 -460 L 500 -463" fill="none" stroke="#880000" stroke-width="1" display="none"/></g><g locked="0"><text x="503.70000000000005" y="-446" font-family="Verdana" font-size="7pt" fill="#0000FF" text-anchor="start">GPIO2</text><text x="499.5" y="-451" font-family="Verdana" font-size="7pt" fill="#0000FF" text-anchor="end">12</text><path d="M 490 -450 h 10" fill="none" stroke="#880000" stroke-width="1"/><circle cx="497" cy="-450" r="3" stroke="#880000" fill="none" stroke-width="1" display="none"/><path d="M 500 -447 L 503 -450 L 500 -453" fill="none" stroke="#880000" stroke-width="1" display="none"/></g><g locked="0"><text x="503.70000000000005" y="-436" font-family="Verdana" font-size="7pt" fill="#0000FF" text-anchor="start">GPIO3</text><text x="499.5" y="-441" font-family="Verdana" font-size="7pt" fill="#0000FF" text-anchor="end">13</text><path d="M 490 -440 h 10" fill="none" stroke="#880000" stroke-width="1"/><circle cx="497" cy="-440" r="3" stroke="#880000" fill="none" stroke-width="1" display="none"/><path d="M 500 -437 L 503 -440 L 500 -443" fill="none" stroke="#880000" stroke-width="1" display="none"/></g><g locked="0"><text x="503.70000000000005" y="-426" font-family="Verdana" font-size="7pt" fill="#0000FF" text-anchor="start">5V</text><text x="499.5" y="-431" font-family="Verdana" font-size="7pt" fill="#0000FF" text-anchor="end">14</text><path d="M 490 -430 h 10" fill="none" stroke="#880000" stroke-width="1"/><circle cx="497" cy="-430" r="3" stroke="#880000" fill="none" stroke-width="1" display="none"/><path d="M 500 -427 L 503 -430 L 500 -433" fill="none" stroke="#880000" stroke-width="1" display="none"/></g><g locked="0"><text x="503.70000000000005" y="-416" font-family="Verdana" font-size="7pt" fill="#000000" text-anchor="start">GND</text><text x="499.5" y="-421" font-family="Verdana" font-size="7pt" fill="#000000" text-anchor="end">15</text><path d="M 490 -420 h 10" fill="none" stroke="#000000" stroke-width="1"/><circle cx="497" cy="-420" r="3" stroke="#000000" fill="none" stroke-width="1" display="none"/><path d="M 500 -417 L 503 -420 L 500 -423" fill="none" stroke="#000000" stroke-width="1" display="none"/></g><g locked="0"><text x="503.70000000000005" y="-406" font-family="Verdana" font-size="7pt" fill="#0000FF" text-anchor="start">NC</text><text x="499.5" y="-411" font-family="Verdana" font-size="7pt" fill="#0000FF" text-anchor="end">16</text><path d="M 490 -410 h 10" fill="none" stroke="#880000" stroke-width="1"/><circle cx="497" cy="-410" r="3" stroke="#880000" fill="none" stroke-width="1" display="none"/><path d="M 500 -407 L 503 -410 L 500 -413" fill="none" stroke="#880000" stroke-width="1" display="none"/></g><g locked="0"><text x="606.3" y="-406" font-family="Verdana" font-size="7pt" fill="#0000FF" text-anchor="end">NC</text><text x="610.5" y="-411" font-family="Verdana" font-size="7pt" fill="#0000FF" text-anchor="start">17</text><path d="M 620 -410 h -10" fill="none" stroke="#880000" stroke-width="1"/><circle cx="613" cy="-410" r="3" stroke="#880000" fill="none" stroke-width="1" display="none"/><path d="M 610 -413 L 607 -410 L 610 -407" fill="none" stroke="#880000" stroke-width="1" display="none"/></g><g locked="0"><text x="606.3" y="-416" font-family="Verdana" font-size="7pt" fill="#000000" text-anchor="end">GND</text><text x="610.5" y="-421" font-family="Verdana" font-size="7pt" fill="#000000" text-anchor="start">18</text><path d="M 620 -420 h -10" fill="none" stroke="#000000" stroke-width="1"/><circle cx="613" cy="-420" r="3" stroke="#000000" fill="none" stroke-width="1" display="none"/><path d="M 610 -423 L 607 -420 L 610 -417" fill="none" stroke="#000000" stroke-width="1" display="none"/></g><g locked="0"><text x="606.3" y="-426" font-family="Verdana" font-size="7pt" fill="#0000FF" text-anchor="end">GPIO12</text><text x="610.5" y="-431" font-family="Verdana" font-size="7pt" fill="#0000FF" text-anchor="start">19</text><path d="M 620 -430 h -10" fill="none" stroke="#880000" stroke-width="1"/><circle cx="613" cy="-430" r="3" stroke="#880000" fill="none" stroke-width="1" display="none"/><path d="M 610 -433 L 607 -430 L 610 -427" fill="none" stroke="#880000" stroke-width="1" display="none"/></g><g locked="0"><text x="606.3" y="-436" font-family="Verdana" font-size="7pt" fill="#0000FF" text-anchor="end">GPIO13</text><text x="610.5" y="-441" font-family="Verdana" font-size="7pt" fill="#0000FF" text-anchor="start">20</text><path d="M 620 -440 h -10" fill="none" stroke="#880000" stroke-width="1"/><circle cx="613" cy="-440" r="3" stroke="#880000" fill="none" stroke-width="1" display="none"/><path d="M 610 -443 L 607 -440 L 610 -437" fill="none" stroke="#880000" stroke-width="1" display="none"/></g><g locked="0"><text x="606.3" y="-446" font-family="Verdana" font-size="7pt" fill="#000000" text-anchor="end">GND</text><text x="610.5" y="-451" font-family="Verdana" font-size="7pt" fill="#000000" text-anchor="start">21</text><path d="M 620 -450 h -10" fill="none" stroke="#000000" stroke-width="1"/><circle cx="613" cy="-450" r="3" stroke="#000000" fill="none" stroke-width="1" display="none"/><path d="M 610 -453 L 607 -450 L 610 -447" fill="none" stroke="#000000" stroke-width="1" display="none"/></g><g locked="0"><text x="606.3" y="-456" font-family="Verdana" font-size="7pt" fill="#0000FF" text-anchor="end">GPIO9</text><text x="610.5" y="-461" font-family="Verdana" font-size="7pt" fill="#0000FF" text-anchor="start">22</text><path d="M 620 -460 h -10" fill="none" stroke="#880000" stroke-width="1"/><circle cx="613" cy="-460" r="3" stroke="#880000" fill="none" stroke-width="1" display="none"/><path d="M 610 -463 L 607 -460 L 610 -457" fill="none" stroke="#880000" stroke-width="1" display="none"/></g><g locked="0"><text x="606.3" y="-466" font-family="Verdana" font-size="7pt" fill="#0000FF" text-anchor="end">GPIO18</text><text x="610.5" y="-471" font-family="Verdana" font-size="7pt" fill="#0000FF" text-anchor="start">23</text><path d="M 620 -470 h -10" fill="none" stroke="#880000" stroke-width="1"/><circle cx="613" cy="-470" r="3" stroke="#880000" fill="none" stroke-width="1" display="none"/><path d="M 610 -473 L 607 -470 L 610 -467" fill="none" stroke="#880000" stroke-width="1" display="none"/></g><g locked="0"><text x="606.3" y="-476" font-family="Verdana" font-size="7pt" fill="#0000FF" text-anchor="end">GPIO19</text><text x="610.5" y="-481" font-family="Verdana" font-size="7pt" fill="#0000FF" text-anchor="start">24</text><path d="M 620 -480 h -10" fill="none" stroke="#880000" stroke-width="1"/><circle cx="613" cy="-480" r="3" stroke="#880000" fill="none" stroke-width="1" display="none"/><path d="M 610 -483 L 607 -480 L 610 -477" fill="none" stroke="#880000" stroke-width="1" display="none"/></g><g locked="0"><text x="606.3" y="-486" font-family="Verdana" font-size="7pt" fill="#0000FF" text-anchor="end">GPIO20</text><text x="610.5" y="-491" font-family="Verdana" font-size="7pt" fill="#0000FF" text-anchor="start">25</text><path d="M 620 -490 h -10" fill="none" stroke="#880000" stroke-width="1"/><circle cx="613" cy="-490" r="3" stroke="#880000" fill="none" stroke-width="1" display="none"/><path d="M 610 -493 L 607 -490 L 610 -487" fill="none" stroke="#880000" stroke-width="1" display="none"/></g><g locked="0"><text x="606.3" y="-496" font-family="Verdana" font-size="7pt" fill="#0000FF" text-anchor="end">GPIO21</text><text x="610.5" y="-501" font-family="Verdana" font-size="7pt" fill="#0000FF" text-anchor="start">26</text><path d="M 620 -500 h -10" fill="none" stroke="#880000" stroke-width="1"/><circle cx="613" cy="-500" r="3" stroke="#880000" fill="none" stroke-width="1" display="none"/><path d="M 610 -503 L 607 -500 L 610 -497" fill="none" stroke="#880000" stroke-width="1" display="none"/></g><g locked="0"><text x="606.3" y="-506" font-family="Verdana" font-size="7pt" fill="#0000FF" text-anchor="end">GPIO22</text><text x="610.5" y="-511" font-family="Verdana" font-size="7pt" fill="#0000FF" text-anchor="start">27</text><path d="M 620 -510 h -10" fill="none" stroke="#880000" stroke-width="1"/><circle cx="613" cy="-510" r="3" stroke="#880000" fill="none" stroke-width="1" display="none"/><path d="M 610 -513 L 607 -510 L 610 -507" fill="none" stroke="#880000" stroke-width="1" display="none"/></g><g locked="0"><text x="606.3" y="-516" font-family="Verdana" font-size="7pt" fill="#0000FF" text-anchor="end">GPIO23</text><text x="610.5" y="-521" font-family="Verdana" font-size="7pt" fill="#0000FF" text-anchor="start">28</text><path d="M 620 -520 h -10" fill="none" stroke="#880000" stroke-width="1"/><circle cx="613" cy="-520" r="3" stroke="#880000" fill="none" stroke-width="1" display="none"/><path d="M 610 -523 L 607 -520 L 610 -517" fill="none" stroke="#880000" stroke-width="1" display="none"/></g><g locked="0"><text x="606.3" y="-526" font-family="Verdana" font-size="7pt" fill="#0000FF" text-anchor="end">GPIO15</text><text x="610.5" y="-531" font-family="Verdana" font-size="7pt" fill="#0000FF" text-anchor="start">29</text><path d="M 620 -530 h -10" fill="none" stroke="#880000" stroke-width="1"/><circle cx="613" cy="-530" r="3" stroke="#880000" fill="none" stroke-width="1" display="none"/><path d="M 610 -533 L 607 -530 L 610 -527" fill="none" stroke="#880000" stroke-width="1" display="none"/></g><g locked="0"><text x="606.3" y="-536" font-family="Verdana" font-size="7pt" fill="#0000FF" text-anchor="end">UART_RXD</text><text x="610.5" y="-541" font-family="Verdana" font-size="7pt" fill="#0000FF" text-anchor="start">30</text><path d="M 620 -540 h -10" fill="none" stroke="#880000" stroke-width="1"/><circle cx="613" cy="-540" r="3" stroke="#880000" fill="none" stroke-width="1" display="none"/><path d="M 610 -543 L 607 -540 L 610 -537" fill="none" stroke="#880000" stroke-width="1" display="none"/></g><g locked="0"><text x="606.3" y="-546" font-family="Verdana" font-size="7pt" fill="#0000FF" text-anchor="end">UART_TXD</text><text x="610.5" y="-551" font-family="Verdana" font-size="7pt" fill="#0000FF" text-anchor="start">31</text><path d="M 620 -550 h -10" fill="none" stroke="#880000" stroke-width="1"/><circle cx="613" cy="-550" r="3" stroke="#880000" fill="none" stroke-width="1" display="none"/><path d="M 610 -553 L 607 -550 L 610 -547" fill="none" stroke="#880000" stroke-width="1" display="none"/></g><g locked="0"><text x="606.3" y="-556" font-family="Verdana" font-size="7pt" fill="#000000" text-anchor="end">GND</text><text x="610.5" y="-561" font-family="Verdana" font-size="7pt" fill="#000000" text-anchor="start">32</text><path d="M 620 -560 h -10" fill="none" stroke="#000000" stroke-width="1"/><circle cx="613" cy="-560" r="3" stroke="#000000" fill="none" stroke-width="1" display="none"/><path d="M 610 -563 L 607 -560 L 610 -557" fill="none" stroke="#000000" stroke-width="1" display="none"/></g><g style="display: none;"><title>This component is unmounted</title><text x="487.6003723144531" y="-389" fill="red" style="font-size: 7pt; font-family: Arial;">(R)</text></g></g><g puuid="7b0fb6366b5e4c23a3230d3dd427ee6d" uuid="d216a1b546d94e57a85908bdff5a9da1" convert_to_pcb="" datastrid="43f8f70dacbf41d2a528d47256a3a1a0" pdatastrid="57e7b87136834e5fbed1c421c71e09ba" utime="1752564909" add_into_bom=""><g style=""><text x="330.0357360839844" y="-528.0000295639038" font-family="Arial" font-size="7pt" fill="#000080" text-anchor="start">MPU6050-TH</text></g><g style=""><text x="330.03572368621826" y="-537.6190385818481" font-family="Arial" font-size="7pt" fill="#000080" text-anchor="start">U2</text></g><rect locked="0" x="315" y="-525" rx="2" ry="2" width="30" height="70" stroke="#880000" stroke-width="1" fill="none"/><ellipse cx="340" cy="-460" rx="1.5" ry="1.5" locked="0" stroke="#880000" stroke-width="1" fill="#880000"/><g locked="0"><text x="341.3" y="-461" font-family="Verdana" font-size="7pt" fill="#0000FF" text-anchor="end">AD0</text><text x="345.5" y="-466" font-family="Verdana" font-size="7pt" fill="#0000FF" text-anchor="start">1</text><path d="M 355 -465 h -10" fill="none" stroke="#880000" stroke-width="1"/><circle cx="348" cy="-465" r="3" stroke="#880000" fill="none" stroke-width="1" display="none"/><path d="M 345 -468 L 342 -465 L 345 -462" fill="none" stroke="#880000" stroke-width="1" display="none"/></g><g locked="0"><text x="341.3" y="-471" font-family="Verdana" font-size="7pt" fill="#0000FF" text-anchor="end">INT</text><text x="345.5" y="-476" font-family="Verdana" font-size="7pt" fill="#0000FF" text-anchor="start">2</text><path d="M 355 -475 h -10" fill="none" stroke="#880000" stroke-width="1"/><circle cx="348" cy="-475" r="3" stroke="#880000" fill="none" stroke-width="1" display="none"/><path d="M 345 -478 L 342 -475 L 345 -472" fill="none" stroke="#880000" stroke-width="1" display="none"/></g><g locked="0"><text x="341.3" y="-481" font-family="Verdana" font-size="7pt" fill="#0000FF" text-anchor="end">SCL</text><text x="345.5" y="-486" font-family="Verdana" font-size="7pt" fill="#0000FF" text-anchor="start">3</text><path d="M 355 -485 h -10" fill="none" stroke="#880000" stroke-width="1"/><circle cx="348" cy="-485" r="3" stroke="#880000" fill="none" stroke-width="1" display="none"/><path d="M 345 -488 L 342 -485 L 345 -482" fill="none" stroke="#880000" stroke-width="1" display="none"/></g><g locked="0"><text x="341.3" y="-491" font-family="Verdana" font-size="7pt" fill="#0000FF" text-anchor="end">SDA</text><text x="345.5" y="-496" font-family="Verdana" font-size="7pt" fill="#0000FF" text-anchor="start">4</text><path d="M 355 -495 h -10" fill="none" stroke="#880000" stroke-width="1"/><circle cx="348" cy="-495" r="3" stroke="#880000" fill="none" stroke-width="1" display="none"/><path d="M 345 -498 L 342 -495 L 345 -492" fill="none" stroke="#880000" stroke-width="1" display="none"/></g><g locked="0"><text x="341.3" y="-501" font-family="Verdana" font-size="7pt" fill="#000000" text-anchor="end">GND</text><text x="345.5" y="-506" font-family="Verdana" font-size="7pt" fill="#000000" text-anchor="start">5</text><path d="M 355 -505 h -10" fill="none" stroke="#000000" stroke-width="1"/><circle cx="348" cy="-505" r="3" stroke="#000000" fill="none" stroke-width="1" display="none"/><path d="M 345 -508 L 342 -505 L 345 -502" fill="none" stroke="#000000" stroke-width="1" display="none"/></g><g locked="0"><text x="341.3" y="-511" font-family="Verdana" font-size="7pt" fill="#0000FF" text-anchor="end">3V3</text><text x="345.5" y="-516" font-family="Verdana" font-size="7pt" fill="#0000FF" text-anchor="start">6</text><path d="M 355 -515 h -10" fill="none" stroke="#880000" stroke-width="1"/><circle cx="348" cy="-515" r="3" stroke="#880000" fill="none" stroke-width="1" display="none"/><path d="M 345 -518 L 342 -515 L 345 -512" fill="none" stroke="#880000" stroke-width="1" display="none"/></g><g style="display: none;"><title>This component is unmounted</title><text x="357" y="-531.93" fill="red" style="font-size: 7pt; font-family: Arial;" text-anchor="end">(R)</text></g></g><g puuid="69a1005edeed43b2abc808a8f36c53e7" uuid="b338a6b8b1574af3a1ad9a6a4bd10863" convert_to_pcb="" datastrid="f5e94db358124e5aa2dd8917c23829dc" pdatastrid="08030450fb00457ea3bff5c5b0dc69ff" utime="1672193116" add_into_bom=""><g style=""><text x="134.0357208251953" y="-432.9999990463257" font-family="Arial" font-size="7pt" fill="#000080" text-anchor="start">DC-DC-5V</text></g><g style=""><text x="134.03571891784668" y="-442.6190438270569" font-family="Arial" font-size="7pt" fill="#000080" text-anchor="start">U4</text></g><rect locked="0" x="110" y="-430" rx="2" ry="2" width="60" height="30" stroke="#880000" stroke-width="1" fill="none"/><ellipse cx="165" cy="-405" rx="1.5" ry="1.5" locked="0" stroke="#880000" stroke-width="1" fill="#880000"/><g locked="0"><text x="166.3" y="-406" font-family="Verdana" font-size="7pt" fill="#0000FF" text-anchor="end">OUT+</text><text x="170.5" y="-411" font-family="Verdana" font-size="7pt" fill="#0000FF" text-anchor="start">1</text><path d="M 180 -410 h -10" fill="none" stroke="#880000" stroke-width="1"/><circle cx="173" cy="-410" r="3" stroke="#880000" fill="none" stroke-width="1" display="none"/><path d="M 170 -413 L 167 -410 L 170 -407" fill="none" stroke="#880000" stroke-width="1" display="none"/></g><g locked="0"><text x="166.3" y="-416" font-family="Verdana" font-size="7pt" fill="#0000FF" text-anchor="end">OUT-</text><text x="170.5" y="-421" font-family="Verdana" font-size="7pt" fill="#0000FF" text-anchor="start">2</text><path d="M 180 -420 h -10" fill="none" stroke="#880000" stroke-width="1"/><circle cx="173" cy="-420" r="3" stroke="#880000" fill="none" stroke-width="1" display="none"/><path d="M 170 -423 L 167 -420 L 170 -417" fill="none" stroke="#880000" stroke-width="1" display="none"/></g><g locked="0"><text x="113.69999999999999" y="-416" font-family="Verdana" font-size="7pt" fill="#0000FF" text-anchor="start">IN-</text><text x="109.5" y="-421" font-family="Verdana" font-size="7pt" fill="#0000FF" text-anchor="end">3</text><path d="M 100 -420 h 10" fill="none" stroke="#880000" stroke-width="1"/><circle cx="107" cy="-420" r="3" stroke="#880000" fill="none" stroke-width="1" display="none"/><path d="M 110 -417 L 113 -420 L 110 -423" fill="none" stroke="#880000" stroke-width="1" display="none"/></g><g locked="0"><text x="113.69999999999999" y="-406" font-family="Verdana" font-size="7pt" fill="#0000FF" text-anchor="start">IN+</text><text x="109.5" y="-411" font-family="Verdana" font-size="7pt" fill="#0000FF" text-anchor="end">4</text><path d="M 100 -410 h 10" fill="none" stroke="#880000" stroke-width="1"/><circle cx="107" cy="-410" r="3" stroke="#880000" fill="none" stroke-width="1" display="none"/><path d="M 110 -407 L 113 -410 L 110 -413" fill="none" stroke="#880000" stroke-width="1" display="none"/></g><g style="display: none;"><title>This component is unmounted</title><text x="182.00000000000003" y="-436.93" fill="red" style="font-size: 7pt; font-family: Arial;" text-anchor="end">(R)</text></g></g><g puuid="806a55eb4d3c40ab838f70f86785d85e" uuid="5310dd2f5bb246bd99b4b4d2f97d01b0" convert_to_pcb="" datastrid="083b291b2c784693ac25c934f7629d78" pdatastrid="4b361123372342688cb8e41c7e2e716b" utime="1735206009" add_into_bom=""><g style=""><text x="259.03570556640625" y="-352.9999990463257" font-family="Arial" font-size="7pt" fill="#000080" text-anchor="start">XL293D-8</text></g><g style=""><text x="259.0357151031494" y="-362.619038105011" font-family="Arial" font-size="7pt" fill="#000080" text-anchor="start">U5</text></g><rect locked="0" x="230" y="-350" rx="2" ry="2" width="70" height="50" stroke="#880000" stroke-width="1" fill="none"/><ellipse cx="295" cy="-305" rx="1.5" ry="1.5" locked="0" stroke="#880000" stroke-width="1" fill="#880000"/><g locked="0"><text x="296.29999999999995" y="-306" font-family="Verdana" font-size="7pt" fill="#0000FF" text-anchor="end">1OUT</text><text x="300.5" y="-311" font-family="Verdana" font-size="7pt" fill="#0000FF" text-anchor="start">1</text><path d="M 310 -310 h -10" fill="none" stroke="#880000" stroke-width="1"/><circle cx="303" cy="-310" r="3" stroke="#880000" fill="none" stroke-width="1" display="none"/><path d="M 300 -313 L 297 -310 L 300 -307" fill="none" stroke="#880000" stroke-width="1" display="none"/></g><g locked="0"><text x="296.29999999999995" y="-316" font-family="Verdana" font-size="7pt" fill="#0000FF" text-anchor="end">1IN&#8722;</text><text x="300.5" y="-321" font-family="Verdana" font-size="7pt" fill="#0000FF" text-anchor="start">2</text><path d="M 310 -320 h -10" fill="none" stroke="#880000" stroke-width="1"/><circle cx="303" cy="-320" r="3" stroke="#880000" fill="none" stroke-width="1" display="none"/><path d="M 300 -323 L 297 -320 L 300 -317" fill="none" stroke="#880000" stroke-width="1" display="none"/></g><g locked="0"><text x="296.29999999999995" y="-326" font-family="Verdana" font-size="7pt" fill="#0000FF" text-anchor="end">1IN+</text><text x="300.5" y="-331" font-family="Verdana" font-size="7pt" fill="#0000FF" text-anchor="start">3</text><path d="M 310 -330 h -10" fill="none" stroke="#880000" stroke-width="1"/><circle cx="303" cy="-330" r="3" stroke="#880000" fill="none" stroke-width="1" display="none"/><path d="M 300 -333 L 297 -330 L 300 -327" fill="none" stroke="#880000" stroke-width="1" display="none"/></g><g locked="0"><text x="296.29999999999995" y="-336" font-family="Verdana" font-size="7pt" fill="#000000" text-anchor="end">GND</text><text x="300.5" y="-341" font-family="Verdana" font-size="7pt" fill="#000000" text-anchor="start">4</text><path d="M 310 -340 h -10" fill="none" stroke="#000000" stroke-width="1"/><circle cx="303" cy="-340" r="3" stroke="#000000" fill="none" stroke-width="1" display="none"/><path d="M 300 -343 L 297 -340 L 300 -337" fill="none" stroke="#000000" stroke-width="1" display="none"/></g><g locked="0"><text x="233.70000000000005" y="-336" font-family="Verdana" font-size="7pt" fill="#0000FF" text-anchor="start">2IN+</text><text x="229.5" y="-341" font-family="Verdana" font-size="7pt" fill="#0000FF" text-anchor="end">5</text><path d="M 220 -340 h 10" fill="none" stroke="#880000" stroke-width="1"/><circle cx="227" cy="-340" r="3" stroke="#880000" fill="none" stroke-width="1" display="none"/><path d="M 230 -337 L 233 -340 L 230 -343" fill="none" stroke="#880000" stroke-width="1" display="none"/></g><g locked="0"><text x="233.70000000000005" y="-326" font-family="Verdana" font-size="7pt" fill="#0000FF" text-anchor="start">2IN&#8722;</text><text x="229.5" y="-331" font-family="Verdana" font-size="7pt" fill="#0000FF" text-anchor="end">6</text><path d="M 220 -330 h 10" fill="none" stroke="#880000" stroke-width="1"/><circle cx="227" cy="-330" r="3" stroke="#880000" fill="none" stroke-width="1" display="none"/><path d="M 230 -327 L 233 -330 L 230 -333" fill="none" stroke="#880000" stroke-width="1" display="none"/></g><g locked="0"><text x="233.70000000000005" y="-316" font-family="Verdana" font-size="7pt" fill="#0000FF" text-anchor="start">2OUT</text><text x="229.5" y="-321" font-family="Verdana" font-size="7pt" fill="#0000FF" text-anchor="end">7</text><path d="M 220 -320 h 10" fill="none" stroke="#880000" stroke-width="1"/><circle cx="227" cy="-320" r="3" stroke="#880000" fill="none" stroke-width="1" display="none"/><path d="M 230 -317 L 233 -320 L 230 -323" fill="none" stroke="#880000" stroke-width="1" display="none"/></g><g locked="0"><text x="233.70000000000005" y="-306" font-family="Verdana" font-size="7pt" fill="#FF0000" text-anchor="start">VCC</text><text x="229.5" y="-311" font-family="Verdana" font-size="7pt" fill="#FF0000" text-anchor="end">8</text><path d="M 220 -310 h 10" fill="none" stroke="#FF0000" stroke-width="1"/><circle cx="227" cy="-310" r="3" stroke="#FF0000" fill="none" stroke-width="1" display="none"/><path d="M 230 -307 L 233 -310 L 230 -313" fill="none" stroke="#FF0000" stroke-width="1" display="none"/></g><g style="display: none;"><title>This component is unmounted</title><text x="312" y="-356.93" fill="red" style="font-size: 7pt; font-family: Arial;" text-anchor="end">(R)</text></g></g><g><line x1="490" y1="-540" x2="500" y2="-550" stroke="#008800" stroke-width="1"/></g><g puuid="88b7b62f56d14ce0a65d98c420c09d52" uuid="b2a0b134445b41328388200a6421b674" convert_to_pcb="" datastrid="92e1c4fee1534a35a12e2cee8defcd24" pdatastrid="33c3f5cd6aac4b22b0025027ebca1cc2" utime="1744300118" add_into_bom=""><g style=""><text x="130.6750030517578" y="-613.1666765213013" font-family="Arial" font-size="7pt" fill="#000080" text-anchor="start">0.96OLED_4P_MODULE_JX</text></g><g style=""><text x="130.67500019073486" y="-622.9166669845581" font-family="Arial" font-size="7pt" fill="#000080" text-anchor="start">OLED1</text></g><g locked="0" style=""><text x="115.27000000000001" y="-602.7" fill="#0000FF" font-family="Verdana" font-size="6.5pt" font-weight="" font-style="" dominant-baseline="" text-anchor="start" type="comment" transform="rotate(90,115.27000000000001,-602.7)">IIC-Connector</text></g><g locked="0"><text x="163" y="-537" font-family="Verdana" font-size="7pt" fill="#0000FF" text-anchor="end">SDA</text><text x="170" y="-541" font-family="Verdana" font-size="7pt" fill="#0000FF" text-anchor="start">4</text><path d="M 185 -540 h -20" fill="none" stroke="#880000" stroke-width="1"/><circle cx="168" cy="-540" r="3" stroke="#880000" fill="none" stroke-width="1" display="none"/><path d="M 165 -543 L 162 -540 L 165 -537" fill="none" stroke="#880000" stroke-width="1" display="none"/></g><g locked="0"><text x="163" y="-557" font-family="Verdana" font-size="7pt" fill="#0000FF" text-anchor="end">SCL</text><text x="170" y="-561" font-family="Verdana" font-size="7pt" fill="#0000FF" text-anchor="start">3</text><path d="M 185 -560 h -20" fill="none" stroke="#880000" stroke-width="1"/><circle cx="168" cy="-560" r="3" stroke="#880000" fill="none" stroke-width="1" display="none"/><path d="M 165 -563 L 162 -560 L 165 -557" fill="none" stroke="#880000" stroke-width="1" display="none"/></g><g locked="0"><text x="163" y="-577" font-family="Verdana" font-size="7pt" fill="#0000FF" text-anchor="end">VCC</text><text x="170" y="-581" font-family="Verdana" font-size="7pt" fill="#0000FF" text-anchor="start">2</text><path d="M 185 -580 h -20" fill="none" stroke="#880000" stroke-width="1"/><circle cx="168" cy="-580" r="3" stroke="#880000" fill="none" stroke-width="1" display="none"/><path d="M 165 -583 L 162 -580 L 165 -577" fill="none" stroke="#880000" stroke-width="1" display="none"/></g><g locked="0"><text x="163" y="-597" font-family="Verdana" font-size="7pt" fill="#0000FF" text-anchor="end">GND</text><text x="170" y="-601" font-family="Verdana" font-size="7pt" fill="#0000FF" text-anchor="start">1</text><path d="M 185 -600 h -20" fill="none" stroke="#880000" stroke-width="1"/><circle cx="168" cy="-600" r="3" stroke="#880000" fill="none" stroke-width="1" display="none"/><path d="M 165 -603 L 162 -600 L 165 -597" fill="none" stroke="#880000" stroke-width="1" display="none"/></g><rect locked="0" x="105" y="-610" rx="3" ry="3" width="60" height="80" stroke="#880000" stroke-width="1" fill="none"/><g style="display: none;"><title>This component is unmounted</title><text x="105" y="-519" fill="red" style="font-size: 7pt; font-family: Arial;">(R)</text></g></g><polyline points="490 -540 180 -540" stroke="#008800" stroke-width="2" fill="none"/><polyline points="620 -460 765 -460 765 -595 445 -595 445 -560 185 -560" stroke="#008800" stroke-width="2" fill="none"/><g><g><text x="209.2797622680664" y="-388.3690490722656" font-family="Times New Roman" font-size="9pt" fill="#000000" text-anchor="start">+5V</text></g><polyline points="220 -400 220 -410" stroke="#000000" stroke-width="1" fill="none"/><polyline points="225 -400 215 -400" stroke="#000000" stroke-width="1" fill="transparent"/></g><polyline points="180 -410 220 -410" stroke="#008800" stroke-width="1" fill="none"/><polyline points="180 -420 235 -420" stroke="#008800" stroke-width="1" fill="none"/><g><g><text x="251.5" y="-415.7440490722656" font-family="Times New Roman" font-size="9pt" fill="#000000" text-anchor="start">GND</text></g><polyline points="245 -420 235 -420" stroke="#000000" stroke-width="1" fill="transparent"/><polyline points="245 -411 245 -429" stroke="#000000" stroke-width="1" fill="transparent"/><polyline points="247 -414 247 -426" stroke="#000000" stroke-width="1" fill="transparent"/><polyline points="249 -417 249 -423" stroke="#000000" stroke-width="1" fill="transparent"/><polyline points="251 -419 251 -421" stroke="#000000" stroke-width="1" fill="transparent"/></g><polyline points="185 -580 255 -580" stroke="#008800" stroke-width="1" fill="none"/><polyline points="185 -600 250 -600" stroke="#008800" stroke-width="1" fill="none"/><g><g><text x="265.50000762939453" y="-575.7440185546875" font-family="Times New Roman" font-size="9pt" fill="#000000" text-anchor="start">+5V</text></g><polyline points="265 -580 255 -580" stroke="#000000" stroke-width="1" fill="none"/><polyline points="265 -585 265 -575" stroke="#000000" stroke-width="1" fill="transparent"/></g><g><g><text x="266.5" y="-595.7440185546875" font-family="Times New Roman" font-size="9pt" fill="#000000" text-anchor="start">GND</text></g><polyline points="260 -600 250 -600" stroke="#000000" stroke-width="1" fill="transparent"/><polyline points="260 -591 260 -609" stroke="#000000" stroke-width="1" fill="transparent"/><polyline points="262 -594 262 -606" stroke="#000000" stroke-width="1" fill="transparent"/><polyline points="264 -597 264 -603" stroke="#000000" stroke-width="1" fill="transparent"/><polyline points="266 -599 266 -601" stroke="#000000" stroke-width="1" fill="transparent"/></g><g><g><text x="413.0595245361328" y="-425.7440490722656" font-family="Times New Roman" font-size="9pt" fill="#000000" text-anchor="start">+5V</text></g><polyline points="435 -430 445 -430" stroke="#000000" stroke-width="1" fill="none"/><polyline points="435 -425 435 -435" stroke="#000000" stroke-width="1" fill="transparent"/></g><polyline points="445 -430 490 -430" stroke="#008800" stroke-width="1" fill="none"/><g><g><text x="422" y="-394" font-family="Times New Roman" font-size="9pt" fill="#000000" text-anchor="start" display="">GND</text></g><polyline points="435 -410 435 -420" stroke="#000000" stroke-width="1" fill="transparent"/><polyline points="426 -410 444 -410" stroke="#000000" stroke-width="1" fill="transparent"/><polyline points="429 -408 441 -408" stroke="#000000" stroke-width="1" fill="transparent"/><polyline points="432 -406 438 -406" stroke="#000000" stroke-width="1" fill="transparent"/><polyline points="434 -404 436 -404" stroke="#000000" stroke-width="1" fill="transparent"/></g><polyline points="435 -420 500 -420" stroke="#008800" stroke-width="1" fill="none"/><g><g display="none"><text x="48.05952453613281" y="-405.7440490722656" font-family="Times New Roman" font-size="9pt" fill="#000000" text-anchor="start">+5V</text></g><polyline points="70 -410 80 -410" stroke="#000000" stroke-width="1" fill="none"/><polyline points="70 -405 70 -415" stroke="#000000" stroke-width="1" fill="transparent"/></g><g><g><text x="56.999999046325684" y="-439.1190490722656" font-family="Times New Roman" font-size="9pt" fill="#000000" text-anchor="start">GND</text></g><polyline points="70 -430 70 -420" stroke="#000000" stroke-width="1" fill="transparent"/><polyline points="79 -430 61 -430" stroke="#000000" stroke-width="1" fill="transparent"/><polyline points="76 -432 64 -432" stroke="#000000" stroke-width="1" fill="transparent"/><polyline points="73 -434 67 -434" stroke="#000000" stroke-width="1" fill="transparent"/><polyline points="71 -436 69 -436" stroke="#000000" stroke-width="1" fill="transparent"/></g><polyline points="70 -420 100 -420" stroke="#008800" stroke-width="1" fill="none"/><g><text x="30" y="-405" font-family="Verdana" font-size="9pt" fill="#0000FF" text-anchor="start" type="comment" value="+12V">+12V</text></g><polyline points="80 -410 100 -410" stroke="#008800" stroke-width="1" fill="none"/><polyline points="355 -515 470 -515 470 -560 490 -560" stroke="#008800" stroke-width="1" fill="none"/><g><g><text x="436.5" y="-500.7440490722656" font-family="Times New Roman" font-size="9pt" fill="#000000" text-anchor="start">GND</text></g><polyline points="430 -505 420 -505" stroke="#000000" stroke-width="1" fill="transparent"/><polyline points="430 -496 430 -514" stroke="#000000" stroke-width="1" fill="transparent"/><polyline points="432 -499 432 -511" stroke="#000000" stroke-width="1" fill="transparent"/><polyline points="434 -502 434 -508" stroke="#000000" stroke-width="1" fill="transparent"/><polyline points="436 -504 436 -506" stroke="#000000" stroke-width="1" fill="transparent"/></g><polyline points="420 -505 355 -505" stroke="#008800" stroke-width="1" fill="none"/><polyline points="355 -495 385 -495 385 -540 390 -540" stroke="#008800" stroke-width="1" fill="none"/><polyline points="355 -485 400 -485 400 -560" stroke="#008800" stroke-width="1" fill="none"/><g arrowtype="3" arrowsize="15"><path d="M 460 -430 L 445 -422.5 L 448.75 -430 L 445 -437.5 Z " fill="#000000" stroke="none" style="shape-rendering:auto;"/></g><g arrowtype="3" arrowsize="15"><path d="M 205 -410 L 190 -402.5 L 193.75 -410 L 190 -417.5 Z " fill="#000000" stroke="none" style="shape-rendering:auto;"/></g><g arrowtype="3" arrowsize="15"><path d="M 230 -580 L 245 -587.5 L 241.25 -580 L 245 -572.5 Z" fill="#000000" stroke="none" style="shape-rendering:auto;"/></g><g arrowtype="3" arrowsize="15"><path d="M 90 -410 L 75 -402.5 L 78.75 -410 L 75 -417.5 Z " fill="#000000" stroke="none" style="shape-rendering:auto;"/></g><polyline points="220 -310 95 -310 95 -410" stroke="#008800" stroke-width="1" fill="none"/><g><g><text x="381.5" y="-335.7440490722656" font-family="Times New Roman" font-size="9pt" fill="#000000" text-anchor="start">GND</text></g><polyline points="375 -340 365 -340" stroke="#000000" stroke-width="1" fill="transparent"/><polyline points="375 -331 375 -349" stroke="#000000" stroke-width="1" fill="transparent"/><polyline points="377 -334 377 -346" stroke="#000000" stroke-width="1" fill="transparent"/><polyline points="379 -337 379 -343" stroke="#000000" stroke-width="1" fill="transparent"/><polyline points="381 -339 381 -341" stroke="#000000" stroke-width="1" fill="transparent"/></g><polyline points="365 -340 310 -340" stroke="#008800" stroke-width="1" fill="none"/><polyline points="310 -310 435 -310" stroke="#008800" stroke-width="1" fill="none"/><g arrowtype="3" arrowsize="15"><path d="M 435 -310 L 420 -302.5 L 423.75 -310 L 420 -317.5 Z " fill="#000000" stroke="none" style="shape-rendering:auto;"/></g><g><text x="440" y="-310" font-family="Verdana" font-size="9pt" fill="#0000FF" text-anchor="start" type="comment" font-style="undefined" font-weight="undefined" value="Motor">Motor</text></g><polyline points="220 -320 170 -320" stroke="#008800" stroke-width="1" fill="none"/><g><text x="130" y="-320" font-family="Verdana" font-size="9pt" fill="#0000FF" text-anchor="start" type="comment" font-style="undefined" font-weight="undefined" value="Motor">Motor</text></g><g arrowtype="3" arrowsize="15"><path d="M 170 -320 L 185 -327.5 L 181.25 -320 L 185 -312.5 Z " fill="#000000" stroke="none" style="shape-rendering:auto;"/></g><polyline points="490 -460 410 -460 410 -320 310 -320" stroke="#008800" stroke-width="1" fill="none"/><polyline points="490 -470 405 -470 405 -330 310 -330" stroke="#008800" stroke-width="1" fill="none"/><polyline points="490 -500 475 -500 475 -475 400 -475 400 -370 220 -370 220 -340" stroke="#008800" stroke-width="1" fill="none"/><polyline points="490 -510 470 -510 470 -480 395 -480 395 -375 215 -375 215 -330 220 -330" stroke="#008800" stroke-width="1" fill="none"/><g><circle cx="490" cy="-420" r="2.5" fill="#CC0000" stroke-width="1"/></g><g><circle cx="95" cy="-410" r="2.5" fill="#CC0000" stroke-width="1"/></g></g></svg>